<?xml version="1.0" encoding="UTF-8"?>
<svg version ="1.1" width="512" height="512" xmlns="http://www.w3.org/2000/svg" viewBox="0 0 512 512">
  <g transform="rotate(180, 256, 256)"> <!-- Esto rota todo el contenido del SVG -->
<path d="M0 0 C5.87325586 3.86000556 11.78243366 7.63228658 17.79785156 11.26660156 C27.2661935 16.99025692 36.58679159 22.93705993 45.90771484 28.89697266 C50.57567459 31.88024308 55.24914286 34.85484855 59.92285156 37.82910156 C60.83558838 38.41006592 61.7483252 38.99103027 62.6887207 39.58959961 C70.91663614 44.82434356 79.16028908 50.03394418 87.40869141 55.23632812 C89.76413046 56.72225673 92.1189917 58.20909638 94.47363281 59.69628906 C95.65276245 60.44096436 95.65276245 60.44096436 96.85571289 61.20068359 C98.43525644 62.19861416 100.01452334 63.19698276 101.59350586 64.19580078 C105.64404548 66.75707902 109.70018638 69.30871648 113.76660156 71.84472656 C139.66946132 88.02295458 159.10261838 104.33749238 166.87207031 134.89941406 C171.79719141 158.30684466 166.29537454 180.99968652 153.75488281 200.83691406 C151.85141558 203.56483717 149.85874316 206.14450937 147.73535156 208.70410156 C146.86136719 209.78304687 146.86136719 209.78304687 145.96972656 210.88378906 C138.13844699 219.57459931 127.50628032 225.45425839 117.73535156 231.70410156 C116.84058105 232.27821777 115.94581055 232.85233398 115.02392578 233.44384766 C110.51070728 236.33617385 105.98795166 239.21304857 101.45800781 242.07910156 C95.43273498 245.89132737 89.42664455 249.73316246 83.42285156 253.57910156 C81.86232056 254.57828613 81.86232056 254.57828613 80.27026367 255.59765625 C77.09178364 257.63286335 73.91353341 259.66842885 70.73535156 261.70410156 C57.84647392 269.95961927 44.95316209 278.20774075 32.03662109 286.41992188 C25.15801333 290.79485969 18.28877672 295.18429115 11.42285156 299.57910156 C10.39087646 300.23885986 9.35890137 300.89861816 8.2956543 301.57836914 C3.40642522 304.70570019 -1.47874194 307.83886323 -6.34950256 310.99487305 C-8.04112707 312.09048266 -9.73409782 313.18398073 -11.42749023 314.27685547 C-13.54363825 315.64344565 -15.65726803 317.01394675 -17.76782227 318.38916016 C-32.77575731 328.06435814 -46.6396904 333.52438793 -64.64746094 330.05175781 C-77.51276465 326.1384213 -88.60958601 318.21061563 -95.12011719 306.31347656 C-98.52396302 299.10152766 -100.39612406 293.73234887 -100.36230469 285.75097656 C-100.36018227 284.76064423 -100.36018227 284.76064423 -100.35801697 283.75030518 C-100.35244089 281.65152362 -100.3398929 279.55285062 -100.32714844 277.45410156 C-100.32213034 276.02701978 -100.31756798 274.59993631 -100.31347656 273.17285156 C-100.30247932 269.68323324 -100.28523124 266.19367801 -100.26464844 262.70410156 C-101.62906791 262.70686694 -101.62906791 262.70686694 -103.02105141 262.70968819 C-125.19915307 262.75394199 -147.37724709 262.78699443 -169.55538368 262.80772591 C-180.28075373 262.8180191 -191.00609423 262.83204186 -201.73144531 262.85498047 C-211.08446727 262.87497443 -220.4374678 262.88783221 -229.79051054 262.89227855 C-234.73848649 262.89487579 -239.68640121 262.90093929 -244.63435745 262.91556168 C-249.30135505 262.92924067 -253.96826677 262.93330356 -258.63528252 262.93031693 C-260.33871746 262.93086251 -262.04215558 262.93477801 -263.74557304 262.94251251 C-284.72770726 263.03302745 -302.04419875 260.53311782 -318.26074219 245.90332031 C-328.74922357 234.99436529 -332.56690259 221.20759112 -332.55517578 206.53344727 C-332.56189301 205.3227507 -332.56861023 204.11205414 -332.57553101 202.8646698 C-332.59122835 199.55852175 -332.59788346 196.25262501 -332.59916258 192.94645715 C-332.60058926 190.87505739 -332.60486869 188.80368356 -332.61015701 186.73229027 C-332.62863668 179.48890908 -332.63683059 172.24560125 -332.63525391 165.00219727 C-332.6340544 158.27829881 -332.65512417 151.55472233 -332.68674123 144.83090526 C-332.71300667 139.03612951 -332.72361687 133.24145822 -332.72234309 127.4466235 C-332.72183628 123.99549753 -332.72736142 120.54465772 -332.74869919 117.09359169 C-332.76841276 113.23603666 -332.76249854 109.37929821 -332.75048828 105.52172852 C-332.76172729 104.39767609 -332.77296631 103.27362366 -332.7845459 102.11550903 C-332.66744009 87.22683437 -326.5664134 74.62979007 -316.52636719 63.80566406 C-306.99326957 54.94762172 -294.83339275 49.55216286 -281.86315918 49.55934143 C-281.11527366 49.55581459 -280.36738814 49.55228774 -279.59683943 49.54865402 C-277.08961845 49.53797535 -274.58243548 49.53428753 -272.07519531 49.53051758 C-270.27816101 49.52421179 -268.48112827 49.51744596 -266.68409729 49.51025391 C-262.81377996 49.4955877 -258.94346865 49.48386158 -255.07313538 49.47430611 C-248.95558843 49.45885898 -242.83809328 49.4349111 -236.72058105 49.40940857 C-219.3246589 49.33818782 -201.92870743 49.27836962 -184.53271484 49.22729492 C-174.92555844 49.19901317 -165.31845391 49.16364645 -155.71135187 49.12064117 C-149.62761983 49.09383788 -143.54394646 49.07595197 -137.46016693 49.06460392 C-133.67853013 49.05549113 -129.89696481 49.03813597 -126.1153698 49.01842499 C-124.35937051 49.01093921 -122.60335291 49.00686781 -120.84733772 49.00642967 C-118.45346195 49.0053499 -116.05995125 48.99212716 -113.6661377 48.97584534 C-112.61964216 48.97977062 -112.61964216 48.97977062 -111.55200529 48.9837752 C-107.98014675 48.94572778 -105.24753231 48.76989867 -102.26464844 46.70410156 C-100.99113132 44.15706733 -101.12209264 42.31165423 -101.08886719 39.46191406 C-100.63500997 16.38879435 -100.63500997 16.38879435 -96.26464844 7.70410156 C-95.84183594 6.84300781 -95.41902344 5.98191406 -94.98339844 5.09472656 C-88.38169274 -7.00840054 -78.11866167 -15.03634844 -65.26464844 -19.67089844 C-39.69931865 -26.85454482 -20.51664756 -13.49831915 0 0 Z " fill="#FEC006" transform="translate(338.2646484375,101.2958984375)"/>
<path d="M0 0 C5.87325586 3.86000556 11.78243366 7.63228658 17.79785156 11.26660156 C27.2661935 16.99025692 36.58679159 22.93705993 45.90771484 28.89697266 C50.57567459 31.88024308 55.24914286 34.85484855 59.92285156 37.82910156 C60.83558838 38.41006592 61.7483252 38.99103027 62.6887207 39.58959961 C70.91663614 44.82434356 79.16028908 50.03394418 87.40869141 55.23632812 C89.76413046 56.72225673 92.1189917 58.20909638 94.47363281 59.69628906 C95.65276245 60.44096436 95.65276245 60.44096436 96.85571289 61.20068359 C98.43525644 62.19861416 100.01452334 63.19698276 101.59350586 64.19580078 C105.64404548 66.75707902 109.70018638 69.30871648 113.76660156 71.84472656 C139.66946132 88.02295458 159.10261838 104.33749238 166.87207031 134.89941406 C171.79719141 158.30684466 166.29537454 180.99968652 153.75488281 200.83691406 C151.85141558 203.56483717 149.85874316 206.14450937 147.73535156 208.70410156 C146.86136719 209.78304687 146.86136719 209.78304687 145.96972656 210.88378906 C138.13844699 219.57459931 127.50628032 225.45425839 117.73535156 231.70410156 C116.84058105 232.27821777 115.94581055 232.85233398 115.02392578 233.44384766 C110.51070728 236.33617385 105.98795166 239.21304857 101.45800781 242.07910156 C95.43273498 245.89132737 89.42664455 249.73316246 83.42285156 253.57910156 C81.86232056 254.57828613 81.86232056 254.57828613 80.27026367 255.59765625 C77.09178364 257.63286335 73.91353341 259.66842885 70.73535156 261.70410156 C57.84647392 269.95961927 44.95316209 278.20774075 32.03662109 286.41992188 C25.15801333 290.79485969 18.28877672 295.18429115 11.42285156 299.57910156 C10.39087646 300.23885986 9.35890137 300.89861816 8.2956543 301.57836914 C3.40642522 304.70570019 -1.47874194 307.83886323 -6.34950256 310.99487305 C-8.04112707 312.09048266 -9.73409782 313.18398073 -11.42749023 314.27685547 C-13.54363825 315.64344565 -15.65726803 317.01394675 -17.76782227 318.38916016 C-32.77575731 328.06435814 -46.6396904 333.52438793 -64.64746094 330.05175781 C-77.51276465 326.1384213 -88.60958601 318.21061563 -95.12011719 306.31347656 C-98.52396302 299.10152766 -100.39612406 293.73234887 -100.36230469 285.75097656 C-100.36018227 284.76064423 -100.36018227 284.76064423 -100.35801697 283.75030518 C-100.35244089 281.65152362 -100.3398929 279.55285062 -100.32714844 277.45410156 C-100.32213034 276.02701978 -100.31756798 274.59993631 -100.31347656 273.17285156 C-100.30247932 269.68323324 -100.28523124 266.19367801 -100.26464844 262.70410156 C-101.62906791 262.70686694 -101.62906791 262.70686694 -103.02105141 262.70968819 C-125.19915307 262.75394199 -147.37724709 262.78699443 -169.55538368 262.80772591 C-180.28075373 262.8180191 -191.00609423 262.83204186 -201.73144531 262.85498047 C-211.08446727 262.87497443 -220.4374678 262.88783221 -229.79051054 262.89227855 C-234.73848649 262.89487579 -239.68640121 262.90093929 -244.63435745 262.91556168 C-249.30135505 262.92924067 -253.96826677 262.93330356 -258.63528252 262.93031693 C-260.33871746 262.93086251 -262.04215558 262.93477801 -263.74557304 262.94251251 C-284.72770726 263.03302745 -302.04419875 260.53311782 -318.26074219 245.90332031 C-328.74922357 234.99436529 -332.56690259 221.20759112 -332.55517578 206.53344727 C-332.56189301 205.3227507 -332.56861023 204.11205414 -332.57553101 202.8646698 C-332.59122835 199.55852175 -332.59788346 196.25262501 -332.59916258 192.94645715 C-332.60058926 190.87505739 -332.60486869 188.80368356 -332.61015701 186.73229027 C-332.62863668 179.48890908 -332.63683059 172.24560125 -332.63525391 165.00219727 C-332.6340544 158.27829881 -332.65512417 151.55472233 -332.68674123 144.83090526 C-332.71300667 139.03612951 -332.72361687 133.24145822 -332.72234309 127.4466235 C-332.72183628 123.99549753 -332.72736142 120.54465772 -332.74869919 117.09359169 C-332.76841276 113.23603666 -332.76249854 109.37929821 -332.75048828 105.52172852 C-332.76172729 104.39767609 -332.77296631 103.27362366 -332.7845459 102.11550903 C-332.66744009 87.22683437 -326.5664134 74.62979007 -316.52636719 63.80566406 C-306.99326957 54.94762172 -294.83339275 49.55216286 -281.86315918 49.55934143 C-281.11527366 49.55581459 -280.36738814 49.55228774 -279.59683943 49.54865402 C-277.08961845 49.53797535 -274.58243548 49.53428753 -272.07519531 49.53051758 C-270.27816101 49.52421179 -268.48112827 49.51744596 -266.68409729 49.51025391 C-262.81377996 49.4955877 -258.94346865 49.48386158 -255.07313538 49.47430611 C-248.95558843 49.45885898 -242.83809328 49.4349111 -236.72058105 49.40940857 C-219.3246589 49.33818782 -201.92870743 49.27836962 -184.53271484 49.22729492 C-174.92555844 49.19901317 -165.31845391 49.16364645 -155.71135187 49.12064117 C-149.62761983 49.09383788 -143.54394646 49.07595197 -137.46016693 49.06460392 C-133.67853013 49.05549113 -129.89696481 49.03813597 -126.1153698 49.01842499 C-124.35937051 49.01093921 -122.60335291 49.00686781 -120.84733772 49.00642967 C-118.45346195 49.0053499 -116.05995125 48.99212716 -113.6661377 48.97584534 C-112.61964216 48.97977062 -112.61964216 48.97977062 -111.55200529 48.9837752 C-107.98014675 48.94572778 -105.24753231 48.76989867 -102.26464844 46.70410156 C-100.99113132 44.15706733 -101.12209264 42.31165423 -101.08886719 39.46191406 C-100.63500997 16.38879435 -100.63500997 16.38879435 -96.26464844 7.70410156 C-95.84183594 6.84300781 -95.41902344 5.98191406 -94.98339844 5.09472656 C-88.38169274 -7.00840054 -78.11866167 -15.03634844 -65.26464844 -19.67089844 C-39.69931865 -26.85454482 -20.51664756 -13.49831915 0 0 Z M-79.62792969 4.57519531 C-85.11832278 11.7166374 -88.3627158 19.54401267 -88.40527344 28.50097656 C-88.42460937 29.62503906 -88.44394531 30.74910156 -88.46386719 31.90722656 C-88.49749521 34.25601491 -88.515933 36.60507396 -88.51855469 38.95410156 C-88.65166536 45.09120399 -89.10423135 49.79076277 -92.41601562 55.02929688 C-100.38207526 62.24630283 -109.75948636 61.26315989 -119.81298828 61.20239258 C-121.60088045 61.20621907 -123.38876954 61.21184093 -125.176651 61.21911621 C-129.01642035 61.23104124 -132.85591611 61.23059715 -136.69569016 61.22052193 C-142.77326999 61.20492196 -148.85057052 61.21866683 -154.9281311 61.23655701 C-166.73556001 61.2673447 -178.54290306 61.26887971 -190.35036469 61.26690674 C-205.37231318 61.26551302 -220.39419544 61.2759303 -235.41609538 61.31548446 C-241.45140712 61.33038056 -247.48647013 61.33017581 -253.5217855 61.31800663 C-257.28404505 61.31328056 -261.04621032 61.32083894 -264.80845451 61.3315506 C-266.5458235 61.33394736 -268.28320856 61.33125474 -270.02055931 61.32294273 C-285.18985206 61.25473995 -296.90053106 63.26365563 -308.56152344 73.77441406 C-316.82401474 82.44071133 -320.41680202 92.11760865 -320.40991211 103.90991211 C-320.41327072 104.73484665 -320.41662933 105.55978119 -320.42008972 106.40971375 C-320.42958723 109.13676461 -320.4315425 111.86375394 -320.43261719 114.59082031 C-320.43583156 116.49168422 -320.43919577 118.39254787 -320.44270325 120.29341125 C-320.44869219 124.28049289 -320.45054348 128.26755286 -320.44995117 132.25463867 C-320.44984978 137.34753186 -320.46347903 142.44028491 -320.48072338 147.53314495 C-320.49188054 151.46153899 -320.49386921 155.38989962 -320.49334145 159.31830788 C-320.49451684 161.19485772 -320.49891377 163.07140856 -320.50667381 164.94794273 C-320.516545 167.58249885 -320.51356732 170.21675675 -320.50756836 172.85131836 C-320.51318787 173.61684021 -320.51880737 174.38236206 -320.52459717 175.17108154 C-320.45260543 187.70395225 -316.23961062 198.40840332 -307.63964844 207.59472656 C-299.21419206 215.07786216 -289.70721372 219.03561086 -278.4533844 218.94892883 C-277.31969395 218.95232569 -277.31969395 218.95232569 -276.16310066 218.95579118 C-273.64681384 218.96106104 -271.13077631 218.9522773 -268.61450195 218.94360352 C-266.80381186 218.94471712 -264.99312214 218.94677605 -263.18243408 218.94970703 C-259.2908737 218.95442099 -255.39937371 218.95331775 -251.50781441 218.94793129 C-245.35110768 218.94031089 -239.19451685 218.95098874 -233.03782654 218.96513367 C-215.53326965 219.00284394 -198.02876564 219.02105886 -180.52416992 219.00952148 C-170.85062234 219.00330277 -161.17726223 219.01489574 -151.50376076 219.0459668 C-145.38667496 219.06460744 -139.27012077 219.0613159 -133.15304387 219.04179919 C-129.34382316 219.03490879 -125.53488964 219.04889138 -121.72572327 219.06874847 C-119.96333071 219.07378784 -118.20088958 219.0703313 -116.43853569 219.05761528 C-100.37077433 218.94994702 -100.37077433 218.94994702 -94.63067532 223.32228374 C-89.10482834 228.91200817 -88.75711906 234.28350951 -88.76464844 241.89160156 C-88.44148818 254.97562335 -85.89587929 264.81605044 -76.63964844 274.38378906 C-69.41543203 281.10632377 -60.71331306 284.07783914 -50.95996094 283.90722656 C-34.7974776 282.68918434 -19.68351817 269.90963445 -6.41699219 261.56738281 C-0.88205566 258.08702301 4.67209088 254.63894921 10.23535156 251.20410156 C27.39706199 240.59433194 44.49410515 229.88627533 61.50488281 219.03613281 C66.40590983 215.91090554 71.3187308 212.80471969 76.23535156 209.70410156 C78.57486253 208.22664577 80.91416015 206.74885266 83.25341797 205.27099609 C84.98168026 204.17990939 86.71056915 203.08981484 88.43994141 202.00048828 C122.59643711 182.65434214 122.59643711 182.65434214 142.29467773 150.35083008 C145.00763902 134.05652908 143.97758968 117.390845 134.29785156 103.73925781 C133.52441406 102.73185547 133.52441406 102.73185547 132.73535156 101.70410156 C131.93291016 100.52847656 131.93291016 100.52847656 131.11425781 99.32910156 C127.77404364 95.64334799 123.8662725 93.27430871 119.67285156 90.64160156 C118.78670166 90.07578369 117.90055176 89.50996582 116.98754883 88.92700195 C114.24227184 87.17726229 111.48951167 85.43981685 108.73535156 83.70410156 C107.11006305 82.67330633 105.48505074 81.64207543 103.86035156 80.61035156 C99.93939365 78.12455539 96.01149388 75.64997033 92.08105469 73.17919922 C88.19215151 70.73365873 84.30728903 68.2817272 80.42285156 65.82910156 C79.64675537 65.33917725 78.87065918 64.84925293 78.07104492 64.34448242 C71.01447516 59.88675165 63.97405066 55.40380638 56.93408203 50.91992188 C47.88305877 45.15714569 38.81116579 39.42772607 29.73535156 33.70410156 C20.65866306 27.9799257 11.58548885 22.25058291 2.53417969 16.48632812 C0.67528599 15.30262924 -1.18408569 14.11968062 -3.04394531 12.9375 C-7.55911898 10.06725356 -12.068427 7.18868425 -16.56542969 4.29003906 C-18.23596741 3.21967164 -19.90653876 2.14935669 -21.57714844 1.07910156 C-22.69573242 0.35207031 -22.69573242 0.35207031 -23.83691406 -0.38964844 C-42.9738177 -12.60689621 -63.21688638 -12.52442324 -79.62792969 4.57519531 Z " fill="#020100" transform="translate(338.2646484375,101.2958984375)"/>
<path d="M0 0 C0.33 0 0.66 0 1 0 C1.602379 21.32867863 -2.10094995 40.01959796 -16.3671875 56.78125 C-23.43042958 64.24271641 -31.33714412 69.58926543 -40 75 C-41.43552398 75.90916519 -42.87040363 76.81934843 -44.3046875 77.73046875 C-47.43947406 79.71822463 -50.57959143 81.69723808 -53.72265625 83.671875 C-59.60643567 87.37427986 -65.45986515 91.12362176 -71.3125 94.875 C-79.36540333 100.03606161 -87.42652955 105.18367201 -95.5 110.3125 C-101.85095315 114.34823027 -108.18829566 118.40315337 -114.5 122.5 C-123.68462012 128.46115586 -132.92669532 134.33116516 -142.16943359 140.20166016 C-145.86891421 142.55204606 -149.56671067 144.90507015 -153.26391602 147.2590332 C-155.08266438 148.4163005 -156.90215946 149.57239514 -158.72241211 150.72729492 C-163.47267913 153.74308805 -168.20734067 156.78015931 -172.921875 159.8515625 C-173.89769531 160.48320312 -174.87351562 161.11484375 -175.87890625 161.765625 C-177.72983414 162.96432116 -179.57654088 164.16957306 -181.41796875 165.3828125 C-191.23444582 171.71795143 -201.14266925 176.18074402 -213 175 C-223.24110885 172.51429397 -232.1454522 166.8773707 -238 158 C-241.61953287 150.5180902 -243.13737265 144.2423591 -243 136 C-242.53851563 136.36351562 -242.07703125 136.72703125 -241.6015625 137.1015625 C-228.57690178 147.14033262 -216.81480183 152.64554304 -200 151 C-184.04963311 147.76928874 -169.68448361 136.37282653 -156.15234375 127.86328125 C-150.61740777 124.38292179 -145.06329559 120.93479052 -139.5 117.5 C-122.36250812 106.90734029 -105.29152829 96.20893202 -88.26806641 85.43408203 C-86.00703156 84.004446 -83.74407564 82.5779033 -81.48046875 81.15234375 C-76.6489845 78.10890533 -71.82329104 75.05640422 -67 72 C-66.02192383 71.3807666 -65.04384766 70.7615332 -64.03613281 70.12353516 C-22.21918425 45.32939025 -22.21918425 45.32939025 -0.8125 3.6640625 C-0.544375 2.45492187 -0.27625 1.24578125 0 0 Z " fill="#FA9D00" transform="translate(493,245)"/>
<path d="M0 0 C0.928125 0.845625 1.85625 1.69125 2.8125 2.5625 C17.92262075 15.49651816 32.37946828 18.30261704 51.6652832 18.27124023 C53.45320369 18.27563228 55.24112214 18.28093618 57.02903748 18.28707886 C60.86436016 18.2985383 64.6996279 18.30403525 68.53496742 18.30496025 C74.59832884 18.30690659 80.66157689 18.32498806 86.72489929 18.34571838 C101.77711881 18.39481786 116.82936882 18.42583079 131.88165283 18.44702148 C143.59638352 18.46353355 155.31101624 18.48629451 167.0256812 18.53004223 C173.0551035 18.55184271 179.08433973 18.55987438 185.11379874 18.55764949 C188.8583035 18.55931322 192.60268602 18.57334199 196.34714699 18.59086227 C198.08541477 18.59647252 199.82370778 18.59693717 201.56197739 18.59192467 C203.93163939 18.58580662 206.30052586 18.59797154 208.67012024 18.61473083 C209.70566346 18.60541311 209.70566346 18.60541311 210.76212674 18.59590715 C213.58138016 18.63233616 215.83083444 18.92988452 218.44249249 20.01236057 C220.88339796 23.12736317 220.42126908 26.41628654 220.25 30.1875 C220.23195312 30.93708984 220.21390625 31.68667969 220.1953125 32.45898438 C220.14824109 34.3065371 220.07649766 36.15343159 220 38 C196.05172472 38.07013819 172.10346487 38.12301177 148.1551075 38.15543652 C137.03501066 38.17089328 125.9149777 38.19196007 114.79492188 38.22631836 C105.10060802 38.25625712 95.40634045 38.27558366 85.71198165 38.28226548 C80.58077824 38.28617014 75.44970721 38.2953219 70.3185463 38.31719017 C65.48409641 38.33762602 60.64983284 38.34381947 55.81534386 38.33932304 C54.04572091 38.34014507 52.27609142 38.34606827 50.50650597 38.35761642 C35.94535923 38.44794116 23.75334595 36.94491591 12.546875 26.7734375 C5.15932096 19.06787617 0.60776675 10.73721264 0 0 Z " fill="#FE9F00" transform="translate(18,313)"/>
<path d="M0 0 C0.33 0 0.66 0 1 0 C1 6.27 1 12.54 1 19 C0.67 19 0.34 19 0 19 C-0.144375 18.0925 -0.28875 17.185 -0.4375 16.25 C-0.89327223 13.19696102 -0.89327223 13.19696102 -1.59375 11.09375 C-2.09148126 8.52851965 -1.69366121 6.77464485 -1.0625 4.25 C-0.86785156 3.45078125 -0.67320312 2.6515625 -0.47265625 1.828125 C-0.31667969 1.22484375 -0.16070312 0.6215625 0 0 Z " fill="#BF7800" transform="translate(493,245)"/>
  </g>
</svg>
